<svg width="905" height="362" viewBox="0 0 905 362" fill="none" xmlns="http://www.w3.org/2000/svg">
<path d="M668.693 354.707C669.084 354.317 669.084 353.683 668.693 353.293L662.329 346.929C661.939 346.538 661.305 346.538 660.915 346.929C660.524 347.319 660.524 347.953 660.915 348.343L666.572 354L660.915 359.657C660.524 360.047 660.524 360.681 660.915 361.071C661.305 361.462 661.939 361.462 662.329 361.071L668.693 354.707ZM11 12H808.083V10H11V12ZM808.083 181.834H96.5828V183.834H808.083V181.834ZM96.5829 355H667.986V353H96.5829V355ZM10 268.417C10 316.236 48.7645 355 96.5829 355V353C49.869 353 12 315.131 12 268.417H10ZM96.5828 181.834C48.7645 181.834 10 220.599 10 268.417H12C12 221.703 49.869 183.834 96.5828 183.834V181.834ZM893 96.9171C893 143.816 854.981 181.834 808.083 181.834V183.834C856.086 183.834 895 144.92 895 96.9171H893ZM808.083 12C854.981 12 893 50.0187 893 96.9171H895C895 48.9141 856.086 10 808.083 10V12Z" fill="url(#paint0_linear_228_28)"/>
<circle cx="15" cy="11" r="11" fill="#EDB70F"/>
<circle cx="11" cy="263" r="11" fill="#37E973"/>
<circle cx="415" cy="11" r="11" fill="#EA2AFB"/>
<circle cx="894" cy="98" r="11" fill="#FF6371"/>
<circle cx="407" cy="181" r="11" fill="#2AB0FB"/>
<defs>
<linearGradient id="paint0_linear_228_28" x1="-9.00002" y1="11" x2="650.594" y2="352.493" gradientUnits="userSpaceOnUse">
<stop stop-color="#6DFFFF"/>
<stop offset="1" stop-color="#2AB0FB"/>
</linearGradient>
</defs>
</svg>
